<?xml version="1.0" standalone="no"?>
<!DOCTYPE svg PUBLIC "-//W3C//DTD SVG 20010904//EN"
 "http://www.w3.org/TR/2001/REC-SVG-20010904/DTD/svg10.dtd">
<svg version="1.0" xmlns="http://www.w3.org/2000/svg"
 width="300.000000pt" height="300.000000pt" viewBox="0 0 300.000000 300.000000"
 preserveAspectRatio="xMidYMid meet">
<metadata>
Created by potrace 1.10, written by Peter Selinger 2001-2011
</metadata>
<g transform="translate(0.000000,300.000000) scale(0.100000,-0.100000)"
fill="#aaa9ad" stroke="none">
<path d="M1351 1543 c-2 -48 -4 -47 77 -43 50 2 52 1 52 -24 0 -25 -2 -26 -55
-26 -30 0 -55 5 -55 10 0 6 -5 10 -11 10 -6 0 -9 -9 -7 -21 2 -17 11 -22 49
-25 88 -6 119 14 105 71 -5 21 -11 23 -68 23 -55 -1 -63 2 -63 18 0 16 9 20
48 22 27 2 55 -2 62 -8 10 -8 15 -8 20 0 13 20 -8 28 -81 32 l-71 3 -2 -42z"/>
<path d="M860 1503 c3 -43 8 -77 13 -75 4 1 34 2 67 2 47 0 64 4 80 20 25 25
26 62 3 101 -17 28 -20 29 -93 29 l-75 0 5 -77z m140 38 c27 -51 -2 -91 -66
-91 l-42 0 -4 51 c-1 28 -1 53 1 55 2 2 26 4 52 4 38 0 51 -4 59 -19z"/>
<path d="M1118 1503 l3 -78 80 -1 c60 -1 79 2 79 12 0 11 -18 14 -71 14 -67 0
-70 1 -67 23 2 18 10 23 46 25 56 4 54 22 -3 22 -38 0 -45 3 -45 20 0 18 7 20
71 20 44 0 68 4 64 10 -3 6 -41 10 -83 10 l-77 0 3 -77z"/>
<path d="M1560 1571 c0 -6 17 -11 37 -13 l37 -3 1 -65 c0 -50 3 -65 15 -68 13
-2 15 8 12 68 l-4 70 41 0 c22 0 41 5 41 10 0 6 -37 10 -90 10 -49 0 -90 -4
-90 -9z"/>
<path d="M1788 1573 c-3 -4 -4 -39 -4 -78 1 -55 4 -70 16 -70 11 0 14 9 12 33
-2 28 1 32 21 32 13 0 38 -15 57 -35 19 -19 43 -35 54 -35 18 0 16 4 -11 26
-40 31 -41 40 -7 48 22 6 25 11 22 44 l-3 37 -77 3 c-42 2 -78 -1 -80 -5z
m132 -38 c0 -24 -3 -25 -55 -25 -47 0 -55 3 -55 18 0 28 9 32 62 32 45 0 48
-2 48 -25z"/>
<path d="M2028 1545 c34 -30 41 -43 44 -77 4 -57 28 -63 28 -8 0 36 6 48 39
81 37 37 37 39 15 39 -13 0 -24 -3 -24 -7 -1 -5 -10 -19 -21 -32 l-20 -25 -25
32 c-17 21 -34 32 -52 32 -25 0 -24 -1 16 -35z"/>
</g>
</svg>
